<?xml version="1.0" standalone="no"?>
<!DOCTYPE svg PUBLIC "-//W3C//DTD SVG 20010904//EN"
 "http://www.w3.org/TR/2001/REC-SVG-20010904/DTD/svg10.dtd">
<svg version="1.0" xmlns="http://www.w3.org/2000/svg"
 width="1280.000000pt" height="1280.000000pt" viewBox="0 0 1280.000000 1280.000000"
 preserveAspectRatio="xMidYMid meet">
<metadata>
Created by potrace 1.15, written by Peter Selinger 2001-2017
</metadata>
<g transform="translate(0.000000,1280.000000) scale(0.100000,-0.100000)"
fill="#000000" stroke="none">
<path d="M11515 9603 c-215 -128 -619 -353 -1015 -563 -1070 -569 -1369 -734
-1760 -968 -488 -292 -962 -625 -1275 -896 -120 -104 -110 -92 -94 -112 13
-16 12 -17 -6 -9 -32 15 -422 18 -645 5 -853 -47 -1581 -203 -2364 -505 -250
-96 -322 -117 -540 -159 -99 -19 -334 -65 -521 -101 -187 -36 -357 -69 -377
-74 -21 -5 -38 -6 -38 -2 0 12 132 178 225 281 196 221 525 483 860 686 657
399 1564 760 2690 1072 138 38 292 80 343 93 50 13 92 26 92 29 -1 3 -65 44
-142 91 l-142 86 -181 -38 c-1390 -291 -2632 -781 -3945 -1557 -471 -279
-1144 -716 -1136 -738 3 -8 -1 -14 -8 -14 -8 0 -17 6 -19 13 -11 27 -6 -34 13
-153 136 -840 379 -1357 780 -1656 82 -61 258 -151 357 -183 312 -100 676
-103 1148 -10 175 35 180 38 244 174 100 209 162 500 162 764 1 219 -32 355
-111 459 -45 59 -41 59 40 -4 100 -76 158 -146 206 -252 25 -53 62 -124 82
-157 147 -247 384 -471 616 -585 146 -72 187 -80 411 -80 839 0 1526 193 2197
617 119 75 167 121 206 198 29 58 53 148 66 245 10 74 14 85 32 88 15 2 25 15
33 45 7 23 35 99 62 168 326 833 1282 1943 2394 2779 498 374 914 617 1277
744 l116 41 -76 118 c-43 64 -81 116 -87 116 -5 0 -82 -44 -170 -96z m-6685
-3127 c0 -2 -35 -24 -77 -50 -43 -26 -89 -54 -102 -64 -23 -16 -24 -16 -13 3
17 32 43 52 112 84 64 29 80 35 80 27z"/>
</g>
</svg>
